<svg width="500" height="500" viewBox="0 0 500 500" fill="none" xmlns="http://www.w3.org/2000/svg">
<path d="M321.1 402.69L313.52 400.61L316.34 382.49L323.92 384.58L321.1 402.69Z" fill="#FFC3BD"/>
<path d="M377.05 407.73H369.18L367.22 389.52H375.09L377.05 407.73Z" fill="#FFC3BD"/>
<path d="M368.54 406.82H378.12C378.276 406.821 378.428 406.875 378.549 406.973C378.671 407.071 378.756 407.208 378.79 407.36L380.35 414.36C380.386 414.531 380.383 414.708 380.341 414.878C380.299 415.048 380.22 415.206 380.108 415.341C379.997 415.475 379.856 415.583 379.697 415.656C379.538 415.728 379.365 415.764 379.19 415.76C376.11 415.71 373.86 415.52 369.97 415.52C367.58 415.52 360.38 415.77 357.08 415.77C353.78 415.77 353.34 412.51 354.69 412.21C360.75 410.89 365.32 409.06 367.26 407.32C367.609 407 368.066 406.821 368.54 406.82V406.82Z" fill="#263238"/>
<path d="M313.81 399.74L322.09 402.02C322.24 402.063 322.372 402.155 322.462 402.283C322.553 402.41 322.598 402.564 322.59 402.72L322.23 409.87C322.223 410.043 322.177 410.213 322.095 410.366C322.013 410.518 321.897 410.65 321.756 410.752C321.616 410.853 321.454 410.921 321.283 410.95C321.112 410.979 320.936 410.969 320.77 410.92C317.77 410.04 313.53 408.68 309.77 407.65C305.38 406.44 301.52 405.65 296.38 404.21C293.27 403.35 293.27 399.97 294.65 400.04C300.94 400.38 305.82 401.58 311.81 399.83C312.455 399.614 313.148 399.583 313.81 399.74V399.74Z" fill="#263238"/>
<path opacity="0.2" d="M316.34 382.5L314.88 391.83L322.47 393.92L323.92 384.59L316.34 382.5Z" fill="black"/>
<path opacity="0.2" d="M375.09 389.53H367.22L368.24 398.92H376.1L375.09 389.53Z" fill="black"/>
<path d="M283.06 158.56L282.38 151.02L275 154.61C275 154.61 276.94 161.3 280.6 160.61L283.06 158.56Z" fill="#FFC3BD"/>
<path d="M280.72 147.47L272.4 149.19L275.02 154.61L282.38 151.02L280.72 147.47Z" fill="#FFC3BD"/>
<path d="M331.49 159.7C327.561 161.257 323.773 163.151 320.17 165.36C319.4 165.74 318.63 166.12 317.85 166.48C315.95 167.34 314.02 168.13 312.08 168.81C308.453 170.188 304.627 170.968 300.75 171.12C300.33 171.12 299.9 171.12 299.5 171.07H299.21H299.08C298.975 171.057 298.872 171.037 298.77 171.01C298.108 170.883 297.465 170.668 296.86 170.37C295.174 169.496 293.611 168.403 292.21 167.12C289.037 164.25 286.151 161.078 283.59 157.65L278.46 160.58C280.465 164.968 282.929 169.131 285.81 173C287.395 175.134 289.243 177.059 291.31 178.73C292.555 179.738 293.948 180.548 295.44 181.13C295.872 181.288 296.313 181.421 296.76 181.53L297.47 181.69L298.02 181.78C298.73 181.91 299.44 181.99 300.14 182.06C305.331 182.368 310.537 181.8 315.54 180.38C317.62 179.84 319.64 179.21 321.63 178.52C323.77 178.07 341.37 174.17 344.38 167.86C348.27 159.69 340.85 156.36 331.49 159.7Z" fill="#263238"/>
<path opacity="0.2" d="M328.16 176.83C330.633 176.123 333.064 175.275 335.44 174.29L336.04 167.85C336.04 167.85 331.34 169.77 328.16 176.83Z" fill="black"/>
<path d="M378 160.84C378.229 160.899 378.445 161.003 378.634 161.146C378.823 161.289 378.982 161.468 379.102 161.672C379.222 161.877 379.3 162.103 379.332 162.337C379.364 162.572 379.35 162.811 379.29 163.04C377.234 170.971 375.72 179.033 374.76 187.17C374.02 193.26 373.57 199.07 373.3 204.35C372.64 216.71 372.91 226.13 372.55 229.35C366.4 228.93 343.23 227.35 330.55 226.43C324.84 181.7 335.75 158.66 335.75 158.66C339.054 158.039 342.394 157.621 345.75 157.41C346.46 157.41 347.18 157.34 347.92 157.33C353.885 157.4 359.842 157.814 365.76 158.57C366.88 158.7 368.01 158.87 369.12 159.05C372.74 159.6 376 160.36 378 160.84Z" fill="#263238"/>
<path opacity="0.2" d="M372.33 169C371.501 174.294 372.473 179.714 375.09 184.39C375.59 180.68 376.21 176.89 376.97 173.06L372.33 169Z" fill="black"/>
<path d="M365.44 138.33C363.91 144 362.44 154.11 365.36 158.64C362.21 161.46 358.46 160.75 355.25 160.25C351.34 159.64 350.82 158.75 352.06 156.92C352.83 156.08 352.97 155.22 353.7 153.26C354.29 151.194 354.338 149.01 353.84 146.92L365.44 138.33Z" fill="#FFC3BD"/>
<path d="M351.8 154.5C352.31 157.07 349.13 158.44 350.06 159.56C350.99 160.68 359.28 163.5 362.93 162.17C366.58 160.84 366.19 160.51 365.93 157.29C365.67 154.07 367.73 151.97 365.07 152.83C363.71 153.27 356.65 152.11 354.62 152.11C352.59 152.11 351.39 152.44 351.8 154.5Z" fill="#263238"/>
<path opacity="0.2" d="M360.71 141.84L353.84 146.91C354.047 147.968 354.158 149.043 354.17 150.12C356.64 149.94 360.17 147.49 360.63 144.95C360.843 143.927 360.87 142.873 360.71 141.84V141.84Z" fill="black"/>
<path d="M350.25 119.44C348.5 120.25 345.67 124.03 348 126.53C350.33 129.03 352.72 118.31 350.25 119.44Z" fill="#263238"/>
<path d="M367.74 130.08C366.45 137.78 366.08 142.35 361.74 145.92C355.23 151.28 346.04 146.72 345 138.79C344.07 131.66 346.34 120.27 354.25 117.99C355.991 117.475 357.835 117.414 359.607 117.813C361.378 118.212 363.018 119.058 364.37 120.27C365.722 121.482 366.742 123.019 367.332 124.737C367.921 126.454 368.062 128.293 367.74 130.08V130.08Z" fill="#FFC3BD"/>
<path d="M365.44 135.6C362.56 133.77 362.44 131.65 363.31 129.75C366.08 123.33 365.31 120.08 360.39 120.67C355.47 121.26 348.46 121.83 349.33 119.58C350.2 117.33 356.38 116.38 361.63 117C366.88 117.62 372.51 121.7 371.39 128.12C370.31 134.26 369 136 365.44 135.6Z" fill="#263238"/>
<path d="M370.5 137.35C369.518 139.05 367.904 140.294 366.01 140.81C363.49 141.47 362.28 139.21 363.01 136.81C363.67 134.7 365.78 131.81 368.29 132.18C370.8 132.55 371.68 135.25 370.5 137.35Z" fill="#FFC3BD"/>
<path d="M312.53 389.3L325.36 392.83C325.36 392.83 335.47 342.16 336.1 317.67C336.29 310.22 339.51 301.41 341.97 290.35C345.09 276.42 348.97 261.35 352.19 249.55C355.57 237.12 358.14 228.33 358.14 228.33L330.56 226.4C330.56 226.4 316.32 291.81 314.61 315.75C312.82 340.64 312.53 389.3 312.53 389.3Z" fill="#407BFF"/>
<path opacity="0.4" d="M312.53 389.3L325.36 392.83C325.36 392.83 335.47 342.16 336.1 317.67C336.29 310.22 339.51 301.41 341.97 290.35C345.09 276.42 348.97 261.35 352.19 249.55C355.57 237.12 358.14 228.33 358.14 228.33L330.56 226.4C330.56 226.4 316.32 291.81 314.61 315.75C312.82 340.64 312.53 389.3 312.53 389.3Z" fill="black"/>
<path opacity="0.2" d="M342 290.35C345.12 276.42 349 261.35 352.22 249.55L349.36 243.38C342.49 251.51 340.65 276.68 342 290.35Z" fill="black"/>
<path d="M345.44 227.44C345.44 227.44 347.44 290 350.72 312.8C354.36 337.8 364.6 397.1 364.6 397.1H379C379 397.1 378.23 340.6 373.72 316.41C368.58 288.87 372.51 229.33 372.51 229.33L345.44 227.44Z" fill="#407BFF"/>
<path opacity="0.4" d="M345.44 227.44C345.44 227.44 347.44 290 350.72 312.8C354.36 337.8 364.6 397.1 364.6 397.1H379C379 397.1 378.23 340.6 373.72 316.41C368.58 288.87 372.51 229.33 372.51 229.33L345.44 227.44Z" fill="black"/>
<path d="M362.88 397.41H379.84V392.34L360.88 392.01L362.88 397.41Z" fill="#263238"/>
<path d="M310.83 389.15L326.13 393.37L327.49 388.43L310.46 383.46L310.83 389.15Z" fill="#263238"/>
<path d="M356.77 130.51C356.71 131.14 356.32 131.62 355.91 131.58C355.5 131.54 355.21 130.99 355.28 130.36C355.35 129.73 355.73 129.25 356.15 129.29C356.57 129.33 356.84 129.88 356.77 130.51Z" fill="#263238"/>
<path d="M348.86 130.26C348.8 130.89 348.41 131.37 347.99 131.32C347.57 131.27 347.3 130.73 347.37 130.1C347.44 129.47 347.82 129 348.24 129.04C348.66 129.08 348.93 129.63 348.86 130.26Z" fill="#263238"/>
<path d="M356.21 135C355.208 135.074 354.208 134.845 353.339 134.343C352.469 133.841 351.771 133.088 351.335 132.184C350.899 131.279 350.746 130.264 350.895 129.271C351.044 128.278 351.489 127.353 352.171 126.616C352.853 125.88 353.742 125.365 354.72 125.141C355.699 124.916 356.722 124.991 357.658 125.356C358.593 125.721 359.397 126.359 359.965 127.188C360.532 128.016 360.837 128.996 360.84 130C360.883 131.275 360.421 132.516 359.554 133.453C358.687 134.389 357.485 134.945 356.21 135V135ZM356.21 125.45C355.298 125.365 354.382 125.558 353.581 126.004C352.781 126.449 352.134 127.126 351.726 127.946C351.318 128.766 351.167 129.69 351.293 130.597C351.42 131.504 351.818 132.352 352.435 133.029C353.051 133.706 353.859 134.18 354.75 134.39C355.642 134.6 356.576 134.535 357.43 134.204C358.284 133.873 359.018 133.292 359.536 132.536C360.053 131.78 360.33 130.886 360.33 129.97C360.373 128.83 359.965 127.718 359.193 126.878C358.422 126.037 357.35 125.534 356.21 125.48V125.45Z" fill="white"/>
<path d="M346 135C344.999 135.074 343.998 134.845 343.129 134.343C342.259 133.841 341.561 133.088 341.125 132.184C340.69 131.279 340.536 130.264 340.685 129.271C340.834 128.278 341.279 127.353 341.961 126.616C342.643 125.88 343.532 125.365 344.51 125.141C345.489 124.916 346.512 124.991 347.448 125.356C348.383 125.721 349.187 126.359 349.755 127.188C350.322 128.016 350.627 128.996 350.63 130C350.673 131.275 350.211 132.516 349.344 133.453C348.477 134.389 347.275 134.945 346 135ZM346 125.45C345.089 125.361 344.172 125.55 343.37 125.992C342.568 126.433 341.919 127.107 341.507 127.924C341.094 128.741 340.939 129.664 341.06 130.571C341.182 131.478 341.575 132.328 342.187 133.008C342.8 133.688 343.604 134.167 344.494 134.382C345.384 134.597 346.318 134.538 347.173 134.212C348.029 133.887 348.766 133.311 349.288 132.559C349.811 131.807 350.094 130.915 350.1 130C350.152 128.858 349.75 127.742 348.981 126.895C348.213 126.048 347.142 125.54 346 125.48V125.45Z" fill="white"/>
<path d="M350.72 130.67C349.933 132.594 348.886 134.4 347.61 136.04C348.035 136.356 348.523 136.574 349.041 136.681C349.56 136.788 350.095 136.781 350.61 136.66L350.72 130.67Z" fill="#ED847E"/>
<path d="M358.65 128.58C358.584 128.595 358.515 128.59 358.451 128.567C358.388 128.544 358.332 128.504 358.29 128.45C358.009 128.075 357.643 127.771 357.223 127.563C356.802 127.354 356.339 127.247 355.87 127.25C355.821 127.254 355.772 127.249 355.726 127.234C355.68 127.219 355.637 127.195 355.6 127.163C355.562 127.132 355.532 127.093 355.51 127.05C355.487 127.006 355.474 126.959 355.47 126.91C355.466 126.862 355.472 126.813 355.487 126.766C355.502 126.72 355.526 126.677 355.557 126.64C355.589 126.603 355.627 126.572 355.671 126.55C355.714 126.528 355.761 126.514 355.81 126.51C356.4 126.493 356.986 126.618 357.519 126.874C358.051 127.129 358.514 127.509 358.87 127.98C358.932 128.059 358.96 128.158 358.949 128.258C358.937 128.357 358.888 128.448 358.81 128.51C358.762 128.544 358.707 128.567 358.65 128.58Z" fill="#263238"/>
<path d="M352.9 140C353.817 140.014 354.724 139.807 355.545 139.398C356.366 138.989 357.078 138.39 357.62 137.65C357.649 137.605 357.659 137.55 357.648 137.498C357.637 137.445 357.605 137.4 357.56 137.37C357.538 137.356 357.513 137.346 357.487 137.341C357.46 137.336 357.434 137.337 357.408 137.342C357.355 137.354 357.309 137.385 357.28 137.43C356.77 138.109 356.109 138.659 355.348 139.036C354.587 139.413 353.749 139.606 352.9 139.6C352.874 139.6 352.848 139.606 352.823 139.616C352.799 139.626 352.777 139.64 352.759 139.659C352.74 139.678 352.725 139.7 352.715 139.724C352.705 139.748 352.7 139.774 352.7 139.8C352.7 139.827 352.705 139.853 352.715 139.877C352.725 139.901 352.74 139.923 352.759 139.942C352.777 139.96 352.799 139.975 352.823 139.985C352.848 139.995 352.874 140 352.9 140V140Z" fill="#263238"/>
<path d="M344.5 128.61C344.419 128.61 344.34 128.59 344.27 128.55C344.188 128.497 344.13 128.414 344.108 128.319C344.086 128.224 344.101 128.124 344.15 128.04C344.451 127.529 344.871 127.097 345.374 126.782C345.877 126.467 346.448 126.278 347.04 126.23C347.139 126.23 347.234 126.269 347.305 126.338C347.376 126.407 347.417 126.501 347.42 126.6C347.418 126.698 347.378 126.792 347.309 126.863C347.241 126.933 347.148 126.975 347.05 126.98C346.584 127.022 346.136 127.176 345.743 127.429C345.349 127.681 345.023 128.025 344.79 128.43C344.758 128.48 344.716 128.522 344.666 128.553C344.615 128.585 344.559 128.604 344.5 128.61Z" fill="#263238"/>
<path d="M365.94 408.2C365.403 408.241 364.867 408.101 364.42 407.8C364.278 407.679 364.169 407.523 364.103 407.349C364.036 407.174 364.015 406.986 364.04 406.8C364.038 406.693 364.065 406.588 364.12 406.496C364.175 406.404 364.255 406.329 364.35 406.28C365.23 405.83 367.76 407.39 368.05 407.57C368.079 407.589 368.103 407.616 368.117 407.648C368.131 407.68 368.136 407.716 368.13 407.75C368.127 407.788 368.111 407.824 368.086 407.853C368.061 407.882 368.027 407.902 367.99 407.91C367.319 408.083 366.632 408.18 365.94 408.2V408.2ZM364.77 406.57C364.687 406.563 364.603 406.581 364.53 406.62C364.47 406.62 364.42 406.69 364.41 406.84C364.393 406.964 364.406 407.09 364.45 407.207C364.494 407.324 364.566 407.428 364.66 407.51C365.538 407.911 366.536 407.961 367.45 407.65C366.634 407.122 365.724 406.755 364.77 406.57V406.57Z" fill="#407BFF"/>
<path d="M368 407.92H367.91C367.1 407.48 365.52 405.75 365.69 404.92C365.717 404.783 365.791 404.66 365.898 404.571C366.006 404.482 366.14 404.432 366.28 404.43C366.423 404.41 366.568 404.421 366.706 404.463C366.844 404.504 366.972 404.575 367.08 404.67C367.99 405.41 368.18 407.67 368.18 407.78C368.185 407.813 368.18 407.847 368.166 407.877C368.151 407.907 368.129 407.933 368.1 407.95C368.064 407.95 368.03 407.939 368 407.92V407.92ZM366.41 404.73H366.33C366.09 404.73 366.06 404.87 366.06 404.92C365.96 405.43 366.96 406.74 367.77 407.35C367.717 406.455 367.393 405.596 366.84 404.89C366.707 404.776 366.535 404.719 366.36 404.73H366.41Z" fill="#407BFF"/>
<path d="M312.79 400.58C311.5 400.49 309.25 400.19 308.62 399.22C308.518 399.076 308.456 398.908 308.44 398.732C308.424 398.557 308.455 398.38 308.53 398.22C308.559 398.123 308.613 398.034 308.686 397.964C308.76 397.894 308.851 397.844 308.95 397.82C310.01 397.58 312.64 399.95 312.95 400.22C312.978 400.243 312.999 400.274 313.009 400.308C313.02 400.343 313.02 400.38 313.009 400.414C312.998 400.449 312.977 400.479 312.949 400.502C312.921 400.524 312.886 400.538 312.85 400.54L312.79 400.58ZM309.05 398.22H309C308.96 398.231 308.924 398.252 308.896 398.282C308.867 398.312 308.848 398.35 308.84 398.39C308.796 398.491 308.777 398.602 308.786 398.712C308.795 398.821 308.83 398.927 308.89 399.02C309.25 399.56 310.47 400.02 312.22 400.16C311.17 399.25 309.67 398.15 309.05 398.22V398.22Z" fill="#407BFF"/>
<path d="M312.79 400.58C312.768 400.589 312.744 400.594 312.72 400.594C312.696 400.594 312.672 400.589 312.65 400.58C311.85 399.92 310.48 397.78 310.86 396.96C310.95 396.77 311.16 396.56 311.67 396.64C311.853 396.672 312.029 396.741 312.185 396.843C312.341 396.944 312.476 397.076 312.58 397.23C313.32 398.28 312.96 400.38 312.95 400.47C312.946 400.502 312.932 400.533 312.911 400.558C312.889 400.583 312.861 400.601 312.83 400.61L312.79 400.58ZM311.39 396.96C311.24 396.96 311.21 397.05 311.2 397.08C310.97 397.57 311.85 399.19 312.63 400.01C312.783 399.124 312.657 398.212 312.27 397.4C312.194 397.286 312.095 397.189 311.98 397.115C311.864 397.041 311.735 396.992 311.6 396.97C311.529 396.971 311.458 396.981 311.39 397V396.96Z" fill="#407BFF"/>
<path d="M375.79 223.12L367.79 223.92L372.56 231.49C372.56 231.49 379.04 228.94 378.07 225.36L375.79 223.12Z" fill="#FFC3BD"/>
<path d="M362.53 227.9L367.45 234.6L372.6 231.49L367.83 223.92L362.53 227.9Z" fill="#FFC3BD"/>
<path d="M394.5 188.76C393.78 186.76 392.96 184.76 392.09 182.87C391.44 180.78 385.94 163.62 379.37 161.2C370.9 158.08 368.27 165.78 372.46 174.79C374.37 178.56 376.605 182.157 379.14 185.54C379.59 186.27 380.04 187 380.46 187.74C381.46 189.56 382.46 191.41 383.32 193.28C385.027 196.761 386.159 200.496 386.67 204.34C386.67 204.77 386.73 205.19 386.73 205.6V205.89C386.725 205.933 386.725 205.977 386.73 206.02C386.738 206.123 386.738 206.227 386.73 206.33C386.669 207.015 386.515 207.688 386.27 208.33C385.554 210.088 384.613 211.745 383.47 213.26C380.902 216.688 378.005 219.856 374.82 222.72L378.22 227.56C382.405 225.158 386.324 222.319 389.91 219.09C391.889 217.314 393.639 215.299 395.12 213.09C396.006 211.755 396.681 210.291 397.12 208.75C397.241 208.306 397.335 207.855 397.4 207.4L397.49 206.68V206.12C397.55 205.4 397.56 204.69 397.57 203.99C397.409 198.777 396.371 193.628 394.5 188.76V188.76Z" fill="#263238"/>
<path d="M86.07 251.57H252.16C254.303 251.549 256.356 250.708 257.898 249.22C259.44 247.733 260.353 245.71 260.45 243.57L264.17 137.65C264.21 136.612 264.041 135.577 263.67 134.606C263.3 133.636 262.738 132.75 262.017 132.003C261.295 131.256 260.43 130.662 259.474 130.258C258.517 129.853 257.489 129.646 256.45 129.65H90.3499C88.2066 129.668 86.152 130.508 84.6096 131.997C83.0672 133.485 82.1546 135.509 82.0599 137.65L78.3399 243.56C78.2995 244.599 78.4696 245.636 78.8402 246.607C79.2108 247.579 79.7741 248.466 80.4962 249.214C81.2184 249.962 82.0844 250.557 83.0423 250.962C84.0002 251.367 85.03 251.573 86.07 251.57V251.57Z" fill="#407BFF"/>
<path opacity="0.4" d="M86.07 251.57H252.16C254.303 251.549 256.356 250.708 257.898 249.22C259.44 247.733 260.353 245.71 260.45 243.57L264.17 137.65C264.21 136.612 264.041 135.577 263.67 134.606C263.3 133.636 262.738 132.75 262.017 132.003C261.295 131.256 260.43 130.662 259.474 130.258C258.517 129.853 257.489 129.646 256.45 129.65H90.3499C88.2066 129.668 86.152 130.508 84.6096 131.997C83.0672 133.485 82.1546 135.509 82.0599 137.65L78.3399 243.56C78.2995 244.599 78.4696 245.636 78.8402 246.607C79.2108 247.579 79.7741 248.466 80.4962 249.214C81.2184 249.962 82.0844 250.557 83.0423 250.962C84.0002 251.367 85.03 251.573 86.07 251.57V251.57Z" fill="black"/>
<path d="M87.65 251.57H253.75C255.892 251.547 257.944 250.705 259.485 249.218C261.026 247.73 261.941 245.71 262.04 243.57L265.76 137.65C265.8 136.611 265.63 135.575 265.26 134.604C264.889 133.633 264.325 132.747 263.603 131.999C262.881 131.252 262.015 130.658 261.057 130.255C260.099 129.851 259.069 129.645 258.03 129.65H91.93C89.7883 129.671 87.7362 130.512 86.196 132C84.6557 133.488 83.7445 135.51 83.65 137.65L79.93 243.56C79.8881 244.599 80.057 245.635 80.4264 246.607C80.7958 247.578 81.3582 248.465 82.0795 249.213C82.8009 249.962 83.6663 250.557 84.6237 250.962C85.581 251.367 86.6105 251.574 87.65 251.57V251.57Z" fill="#407BFF"/>
<path opacity="0.9" d="M252.16 244.9C253.005 244.89 253.815 244.558 254.423 243.97C255.032 243.383 255.392 242.585 255.43 241.74L259 139.46C259.022 139.053 258.96 138.645 258.819 138.263C258.678 137.88 258.461 137.53 258.18 137.234C257.899 136.939 257.561 136.703 257.186 136.542C256.811 136.382 256.408 136.299 256 136.3H93.5199C92.6751 136.312 91.8665 136.645 91.259 137.232C90.6514 137.819 90.2905 138.616 90.2499 139.46L86.6599 241.74C86.6382 242.147 86.6997 242.554 86.8407 242.937C86.9816 243.32 87.1992 243.67 87.4799 243.965C87.7607 244.261 88.0988 244.496 88.4737 244.657C88.8485 244.818 89.2521 244.9 89.6599 244.9H252.16Z" fill="white"/>
<path opacity="0.3" d="M203.14 217.22C208.392 210.604 211.454 202.516 211.9 194.08C212.333 185.884 210.056 177.773 205.42 171V170.88C205.341 170.764 205.254 170.654 205.16 170.55C201.72 165.704 197.161 161.759 191.87 159.052C186.579 156.345 180.713 154.955 174.77 155C168.626 155.047 162.57 156.467 157.046 159.155C151.521 161.844 146.668 165.734 142.84 170.54C142.76 170.63 142.68 170.71 142.61 170.8C142.595 170.834 142.579 170.868 142.56 170.9C137.301 177.518 134.236 185.609 133.79 194.05C133.339 202.275 135.621 210.418 140.28 217.21C140.276 217.24 140.276 217.27 140.28 217.3L140.37 217.41C143.805 222.301 148.376 226.285 153.69 229.02C159.005 231.754 164.903 233.158 170.88 233.11C177.014 233.062 183.06 231.646 188.577 228.964C194.094 226.283 198.943 222.404 202.77 217.61C202.862 217.511 202.949 217.408 203.03 217.3C203.068 217.276 203.105 217.249 203.14 217.22V217.22ZM171.14 228.49C165.55 228.49 160.84 221.96 158.45 212.33C162.911 211.436 167.45 210.99 172 211C176.507 210.99 181.004 211.439 185.42 212.34C182.08 222 176.73 228.49 171.15 228.49H171.14ZM172.23 206.34C167.293 206.33 162.368 206.819 157.53 207.8C156.936 204.034 156.675 200.222 156.75 196.41H188.7C188.387 200.253 187.751 204.063 186.8 207.8C182.01 206.815 177.13 206.326 172.24 206.34H172.23ZM138.4 196.41H152.1C152.003 200.597 152.284 204.784 152.94 208.92C149.53 209.879 146.239 211.221 143.13 212.92C140.113 207.936 138.483 202.236 138.41 196.41H138.4ZM145 175.25C147.966 176.961 151.129 178.304 154.42 179.25C153.366 183.355 152.673 187.544 152.35 191.77H138.65C139.351 185.819 141.534 180.139 145 175.25V175.25ZM174.55 159.68C180.14 159.68 184.84 166.21 187.24 175.84C182.775 176.729 178.233 177.174 173.68 177.17C169.173 177.178 164.677 176.732 160.26 175.84C163.6 166.21 169 159.68 174.54 159.68H174.55ZM173.46 181.82C178.397 181.829 183.322 181.34 188.16 180.36C188.749 184.13 189.01 187.945 188.94 191.76H157C157.308 187.913 157.943 184.099 158.9 180.36C163.687 181.345 168.563 181.834 173.45 181.82H173.46ZM207.29 191.76H193.59C193.683 187.57 193.401 183.38 192.75 179.24C196.159 178.277 199.45 176.936 202.56 175.24C205.574 180.229 207.203 185.932 207.28 191.76H207.29ZM193.36 196.41H207.06C206.35 202.355 204.163 208.027 200.7 212.91C197.733 211.202 194.57 209.859 191.28 208.91C192.338 204.813 193.031 200.63 193.35 196.41H193.36ZM199.91 171.52C197.329 172.856 194.618 173.925 191.82 174.71C190.787 170.053 188.865 165.639 186.16 161.71C191.529 163.704 196.271 167.089 199.9 171.52H199.91ZM162.73 161.73C159.669 165.621 157.319 170.022 155.79 174.73C153.093 173.948 150.488 172.878 148.02 171.54C152.056 167.131 157.099 163.765 162.72 161.73H162.73ZM145.8 216.65C148.38 215.316 151.086 214.244 153.88 213.45C154.915 218.106 156.837 222.52 159.54 226.45C154.169 224.46 149.423 221.078 145.79 216.65H145.8ZM183 226.43C186.068 222.544 188.418 218.142 189.94 213.43C192.638 214.214 195.243 215.287 197.71 216.63C193.673 221.04 188.625 224.403 183 226.43V226.43Z" fill="#407BFF"/>
<path opacity="0.6" d="M123.47 136.3L109.03 244.9H128.25L142.69 136.3H123.47Z" fill="white"/>
<path opacity="0.6" d="M149.25 136.3L134.81 244.9H142.69L157.14 136.3H149.25Z" fill="white"/>
<path opacity="0.3" d="M173.63 133.15C173.623 133.31 173.649 133.47 173.706 133.619C173.763 133.769 173.85 133.905 173.961 134.021C174.072 134.136 174.206 134.227 174.353 134.289C174.501 134.35 174.66 134.381 174.82 134.38C175.149 134.378 175.465 134.249 175.701 134.019C175.938 133.79 176.077 133.479 176.09 133.15C176.097 132.99 176.071 132.83 176.014 132.681C175.957 132.531 175.87 132.395 175.759 132.279C175.648 132.164 175.514 132.073 175.366 132.011C175.219 131.95 175.06 131.918 174.9 131.92C174.571 131.922 174.255 132.051 174.018 132.28C173.782 132.51 173.643 132.821 173.63 133.15V133.15Z" fill="white"/>
<path d="M278.11 362.12H112C109.721 362.012 107.536 361.176 105.766 359.737C103.995 358.297 102.732 356.329 102.16 354.12L80.8999 261.22C79.8999 256.82 82.6699 253.22 87.0699 253.22H253.17C255.449 253.33 257.633 254.166 259.403 255.605C261.173 257.045 262.437 259.012 263.01 261.22L284.27 354.12C285.29 358.52 282.51 362.12 278.11 362.12Z" fill="#407BFF"/>
<path opacity="0.4" d="M278.11 362.12H112C109.721 362.012 107.536 361.176 105.766 359.737C103.995 358.297 102.732 356.329 102.16 354.12L80.8999 261.22C79.8999 256.82 82.6699 253.22 87.0699 253.22H253.17C255.449 253.33 257.633 254.166 259.403 255.605C261.173 257.045 262.437 259.012 263.01 261.22L284.27 354.12C285.29 358.52 282.51 362.12 278.11 362.12Z" fill="black"/>
<path d="M279.7 362.12H113.6C111.32 362.013 109.135 361.178 107.364 359.739C105.593 358.299 104.33 356.33 103.76 354.12L82.4999 261.21C81.4999 256.81 84.2699 253.21 88.6699 253.21H254.77C257.049 253.32 259.233 254.156 261.003 255.595C262.773 257.034 264.037 259.002 264.61 261.21L285.87 354.11C286.88 358.52 284.1 362.12 279.7 362.12Z" fill="#407BFF"/>
<path opacity="0.2" d="M104.81 315.75C103.91 315.707 103.048 315.378 102.35 314.809C101.651 314.24 101.154 313.462 100.93 312.59L89.59 263C89.4827 262.631 89.4642 262.242 89.5358 261.864C89.6074 261.487 89.7671 261.131 90.002 260.827C90.2369 260.523 90.5403 260.279 90.8875 260.114C91.2347 259.95 91.6159 259.869 92 259.88H254.47C255.37 259.921 256.233 260.25 256.932 260.819C257.631 261.388 258.128 262.167 258.35 263.04L269.7 312.59C269.814 312.964 269.836 313.359 269.766 313.744C269.695 314.128 269.534 314.49 269.295 314.799C269.056 315.108 268.747 315.356 268.393 315.521C268.039 315.687 267.65 315.765 267.26 315.75H104.81Z" fill="black"/>
<path opacity="0.2" d="M171.75 354.73C171.225 354.705 170.722 354.513 170.314 354.182C169.905 353.851 169.613 353.398 169.48 352.89L162.87 324C162.805 323.782 162.792 323.552 162.834 323.329C162.875 323.106 162.969 322.895 163.108 322.716C163.246 322.536 163.426 322.391 163.632 322.295C163.837 322.198 164.063 322.152 164.29 322.16H210.71C211.239 322.18 211.747 322.369 212.16 322.701C212.572 323.032 212.867 323.488 213 324L219.62 352.89C219.685 353.108 219.698 353.338 219.656 353.561C219.615 353.784 219.521 353.995 219.382 354.175C219.244 354.354 219.064 354.499 218.858 354.595C218.653 354.692 218.427 354.738 218.2 354.73H171.75Z" fill="black"/>
<path d="M284.23 289.9L289.23 158.13C289.265 157.305 289.133 156.482 288.843 155.71C288.552 154.937 288.109 154.231 287.54 153.634C286.971 153.036 286.287 152.56 285.529 152.233C284.771 151.906 283.955 151.735 283.13 151.73L199.13 151.02C197.431 151.021 195.797 151.676 194.569 152.849C193.34 154.022 192.61 155.623 192.53 157.32L187.53 289.08C187.494 289.905 187.624 290.73 187.914 291.503C188.204 292.277 188.647 292.984 189.216 293.583C189.786 294.181 190.47 294.659 191.229 294.986C191.987 295.314 192.804 295.485 193.63 295.49L277.63 296.2C279.328 296.197 280.96 295.541 282.189 294.369C283.417 293.196 284.148 291.596 284.23 289.9V289.9Z" fill="#407BFF"/>
<path opacity="0.4" d="M284.23 289.9L289.23 158.13C289.265 157.305 289.133 156.482 288.843 155.71C288.552 154.937 288.109 154.231 287.54 153.634C286.971 153.036 286.287 152.56 285.529 152.233C284.771 151.906 283.955 151.735 283.13 151.73L199.13 151.02C197.431 151.021 195.797 151.676 194.569 152.849C193.34 154.022 192.61 155.623 192.53 157.32L187.53 289.08C187.494 289.905 187.624 290.73 187.914 291.503C188.204 292.277 188.647 292.984 189.216 293.583C189.786 294.181 190.47 294.659 191.229 294.986C191.987 295.314 192.804 295.485 193.63 295.49L277.63 296.2C279.328 296.197 280.96 295.541 282.189 294.369C283.417 293.196 284.148 291.596 284.23 289.9V289.9Z" fill="black"/>
<path d="M286.08 289.9L291.13 158.13C291.164 157.305 291.031 156.482 290.739 155.709C290.448 154.936 290.004 154.23 289.433 153.633C288.863 153.036 288.179 152.56 287.42 152.233C286.662 151.906 285.846 151.735 285.02 151.73L201 151C199.301 151.001 197.668 151.656 196.439 152.829C195.21 154.002 194.48 155.603 194.4 157.3L189.4 289.06C189.364 289.885 189.494 290.71 189.784 291.483C190.074 292.257 190.517 292.964 191.086 293.563C191.656 294.161 192.34 294.639 193.099 294.966C193.857 295.294 194.674 295.465 195.5 295.47L279.5 296.18C281.192 296.174 282.818 295.52 284.042 294.352C285.266 293.183 285.996 291.59 286.08 289.9V289.9Z" fill="#407BFF"/>
<path opacity="0.9" d="M285.78 159.53C285.793 159.205 285.741 158.88 285.626 158.575C285.511 158.271 285.336 157.992 285.111 157.757C284.886 157.522 284.616 157.334 284.317 157.206C284.017 157.078 283.695 157.011 283.37 157.01L202.26 156.32C201.59 156.322 200.946 156.581 200.462 157.045C199.978 157.508 199.691 158.14 199.66 158.81L194.72 287.68C194.706 288.006 194.759 288.331 194.874 288.636C194.988 288.941 195.163 289.22 195.388 289.456C195.613 289.692 195.883 289.88 196.182 290.01C196.482 290.139 196.804 290.207 197.13 290.21L278.24 290.89C278.909 290.891 279.553 290.633 280.037 290.171C280.521 289.709 280.809 289.078 280.84 288.41L285.78 159.53Z" fill="white"/>
<path opacity="0.3" d="M270.41 246.25C275.283 240.103 278.124 232.593 278.54 224.76C278.956 217.135 276.848 209.585 272.54 203.28V203.18C272.47 203.066 272.386 202.962 272.29 202.87C269.096 198.389 264.869 194.743 259.967 192.242C255.065 189.74 249.633 188.457 244.13 188.5C238.425 188.545 232.802 189.864 227.672 192.361C222.543 194.857 218.035 198.468 214.48 202.93C214.404 203.009 214.334 203.092 214.27 203.18L214.22 203.27C209.303 209.399 206.428 216.914 206 224.76C205.571 232.393 207.681 239.952 212 246.26C212.004 246.29 212.004 246.32 212 246.35L212.09 246.45C215.288 250.998 219.544 254.699 224.492 257.233C229.44 259.768 234.931 261.061 240.49 261C246.185 260.957 251.799 259.643 256.922 257.154C262.045 254.664 266.547 251.062 270.1 246.61C270.188 246.522 270.272 246.428 270.35 246.33L270.41 246.25ZM240.7 256.71C235.52 256.71 231.15 250.64 228.92 241.71C233.062 240.883 237.276 240.467 241.5 240.47C245.697 240.458 249.885 240.87 254 241.7C250.86 250.64 245.89 256.71 240.7 256.71ZM241.7 236.15C237.116 236.139 232.543 236.592 228.05 237.5C227.498 234.001 227.254 230.461 227.32 226.92H257C256.709 230.49 256.117 234.03 255.23 237.5C250.785 236.588 246.258 236.135 241.72 236.15H241.7ZM210.29 226.92H223C222.903 230.809 223.165 234.699 223.78 238.54C220.614 239.427 217.558 240.669 214.67 242.24C211.882 237.611 210.377 232.323 210.31 226.92H210.29ZM216.4 207.28C219.155 208.865 222.093 210.108 225.15 210.98C224.165 214.792 223.519 218.684 223.22 222.61H210.52C211.17 217.086 213.199 211.815 216.42 207.28H216.4ZM243.83 192.82C249.02 192.82 253.39 198.88 255.62 207.82C251.475 208.652 247.257 209.068 243.03 209.06C238.845 209.072 234.67 208.657 230.57 207.82C233.7 198.88 238.66 192.82 243.85 192.82H243.83ZM242.83 213.38C247.418 213.386 251.995 212.923 256.49 212C257.037 215.502 257.278 219.046 257.21 222.59H227.56C227.844 219.016 228.432 215.473 229.32 212C233.766 212.927 238.297 213.39 242.84 213.38H242.83ZM274.24 222.61H261.53C261.616 218.718 261.355 214.826 260.75 210.98C263.917 210.097 266.974 208.856 269.86 207.28C272.658 211.91 274.174 217.201 274.25 222.61H274.24ZM261.31 226.92H274C273.34 232.438 271.312 237.705 268.1 242.24C265.342 240.661 262.404 239.419 259.35 238.54C260.344 234.732 261.003 230.843 261.32 226.92H261.31ZM267.39 203.81C264.995 205.062 262.478 206.067 259.88 206.81C258.92 202.494 257.137 198.402 254.63 194.76C259.612 196.594 264.019 199.717 267.4 203.81H267.39ZM232.87 194.73C230.024 198.332 227.843 202.412 226.43 206.78C223.924 206.048 221.506 205.042 219.22 203.78C222.975 199.704 227.662 196.598 232.88 194.73H232.87ZM217.15 245.73C219.541 244.478 222.054 243.473 224.65 242.73C225.618 247.046 227.403 251.136 229.91 254.78C224.932 252.943 220.532 249.816 217.16 245.72L217.15 245.73ZM251.67 254.81C254.51 251.204 256.69 247.125 258.11 242.76C260.614 243.499 263.031 244.504 265.32 245.76C261.572 249.833 256.891 252.935 251.68 254.8L251.67 254.81Z" fill="#407BFF"/>
<path opacity="0.6" d="M219.79 156.47L205.38 290.28L224.58 290.44L238.99 156.63L219.79 156.47Z" fill="white"/>
<path opacity="0.6" d="M245.54 156.69L231.13 290.5L239.01 290.56L253.42 156.75L245.54 156.69Z" fill="white"/>
<path opacity="0.3" d="M241.12 154.74C241.385 154.74 241.639 154.635 241.827 154.447C242.015 154.26 242.12 154.005 242.12 153.74C242.128 153.612 242.11 153.483 242.066 153.362C242.023 153.241 241.955 153.13 241.867 153.036C241.779 152.943 241.672 152.868 241.554 152.817C241.436 152.766 241.309 152.74 241.18 152.74C240.915 152.74 240.66 152.846 240.473 153.033C240.285 153.221 240.18 153.475 240.18 153.74C240.172 153.869 240.19 153.997 240.233 154.118C240.277 154.239 240.345 154.35 240.433 154.444C240.521 154.538 240.628 154.612 240.746 154.663C240.864 154.714 240.991 154.74 241.12 154.74Z" fill="white"/>
<path d="M309.55 325.22L314.6 221.8C314.635 220.975 314.503 220.151 314.213 219.378C313.923 218.605 313.48 217.898 312.911 217.3C312.341 216.702 311.657 216.225 310.9 215.896C310.142 215.568 309.326 215.396 308.5 215.39L259.93 214.69C258.233 214.691 256.601 215.344 255.372 216.515C254.143 217.686 253.412 219.285 253.33 220.98L248.33 324.41C248.295 325.235 248.427 326.058 248.717 326.83C249.007 327.603 249.45 328.309 250.02 328.906C250.589 329.504 251.273 329.98 252.031 330.307C252.789 330.634 253.605 330.805 254.43 330.81L303 331.52C304.69 331.506 306.311 330.846 307.529 329.674C308.748 328.502 309.471 326.908 309.55 325.22Z" fill="#407BFF"/>
<path opacity="0.4" d="M309.55 325.22L314.6 221.8C314.635 220.975 314.503 220.151 314.213 219.378C313.923 218.605 313.48 217.898 312.911 217.3C312.341 216.702 311.657 216.225 310.9 215.896C310.142 215.568 309.326 215.396 308.5 215.39L259.93 214.69C258.233 214.691 256.601 215.344 255.372 216.515C254.143 217.686 253.412 219.285 253.33 220.98L248.33 324.41C248.295 325.235 248.427 326.058 248.717 326.83C249.007 327.603 249.45 328.309 250.02 328.906C250.589 329.504 251.273 329.98 252.031 330.307C252.789 330.634 253.605 330.805 254.43 330.81L303 331.52C304.69 331.506 306.311 330.846 307.529 329.674C308.748 328.502 309.471 326.908 309.55 325.22Z" fill="black"/>
<path d="M311.41 325.22L316.41 221.8C316.446 220.975 316.316 220.15 316.026 219.377C315.736 218.603 315.293 217.896 314.724 217.297C314.154 216.699 313.47 216.221 312.711 215.893C311.953 215.566 311.136 215.395 310.31 215.39L261.74 214.69C260.044 214.691 258.413 215.344 257.186 216.516C255.959 217.687 255.23 219.286 255.15 220.98L250.1 324.41C250.065 325.235 250.197 326.058 250.487 326.83C250.777 327.603 251.221 328.309 251.79 328.906C252.359 329.504 253.043 329.98 253.801 330.307C254.559 330.634 255.375 330.805 256.2 330.81L304.77 331.52C306.475 331.527 308.117 330.876 309.354 329.702C310.591 328.529 311.328 326.923 311.41 325.22V325.22Z" fill="#407BFF"/>
<path opacity="0.9" d="M311.11 223.2C311.122 222.875 311.069 222.55 310.954 222.246C310.838 221.941 310.663 221.663 310.438 221.427C310.214 221.191 309.944 221.003 309.646 220.873C309.347 220.743 309.026 220.674 308.7 220.67L263 220C262.33 220.002 261.686 220.261 261.202 220.725C260.718 221.189 260.431 221.821 260.4 222.49L255.48 323C255.467 323.326 255.519 323.651 255.634 323.956C255.749 324.261 255.924 324.54 256.149 324.776C256.373 325.012 256.643 325.201 256.943 325.33C257.242 325.46 257.564 325.528 257.89 325.53L303.57 326.21C304.239 326.211 304.883 325.953 305.367 325.491C305.852 325.029 306.139 324.399 306.17 323.73L311.11 223.2Z" fill="white"/>
<path opacity="0.3" d="M300.56 287C303.555 283.228 305.302 278.619 305.56 273.81C305.813 269.127 304.516 264.492 301.87 260.62C301.87 260.62 301.87 260.62 301.87 260.56C301.829 260.493 301.782 260.429 301.73 260.37C299.766 257.619 297.168 255.382 294.157 253.847C291.146 252.312 287.81 251.524 284.43 251.55C280.929 251.577 277.479 252.386 274.331 253.919C271.184 255.452 268.419 257.67 266.24 260.41L266.1 260.56V260.62C263.101 264.389 261.353 269 261.1 273.81C260.836 278.497 262.134 283.139 264.79 287.01V287.06C264.79 287.06 264.79 287.06 264.84 287.12C266.8 289.894 269.403 292.15 272.427 293.697C275.45 295.244 278.804 296.034 282.2 296C285.695 295.973 289.14 295.167 292.283 293.639C295.427 292.111 298.189 289.901 300.37 287.17C300.428 287.115 300.482 287.055 300.53 286.99L300.56 287ZM282.33 293.42C279.14 293.42 276.46 289.7 275.1 284.21C277.642 283.703 280.228 283.448 282.82 283.45C285.389 283.446 287.952 283.7 290.47 284.21C288.56 289.65 285.51 293.37 282.33 293.37V293.42ZM282.95 280.8C280.136 280.794 277.328 281.072 274.57 281.63C274.236 279.483 274.088 277.312 274.13 275.14H292.33C292.157 277.33 291.796 279.502 291.25 281.63C288.537 281.056 285.773 280.761 283 280.75L282.95 280.8ZM263.67 275.14H271.48C271.425 277.526 271.586 279.913 271.96 282.27C270.014 282.813 268.135 283.575 266.36 284.54C264.637 281.686 263.708 278.423 263.67 275.09V275.14ZM267.42 263C269.113 263.969 270.916 264.731 272.79 265.27C272.187 267.61 271.792 270 271.61 272.41H263.8C264.201 269.02 265.445 265.785 267.42 263V263ZM284.26 254.12C287.45 254.12 290.13 257.84 291.5 263.33C288.955 263.842 286.366 264.096 283.77 264.09C281.201 264.099 278.637 263.845 276.12 263.33C278 257.87 281.08 254.15 284.26 254.15V254.12ZM283.64 266.74C286.454 266.746 289.262 266.468 292.02 265.91C292.355 268.06 292.502 270.235 292.46 272.41H274.26C274.437 270.217 274.798 268.042 275.34 265.91C278.07 266.48 280.851 266.768 283.64 266.77V266.74ZM302.92 272.41H295.11C295.165 270.02 295.004 267.631 294.63 265.27C296.576 264.726 298.455 263.965 300.23 263C301.951 265.851 302.879 269.11 302.92 272.44V272.41ZM295 275.09H302.81C302.408 278.476 301.163 281.708 299.19 284.49C297.497 283.521 295.694 282.759 293.82 282.22C294.422 279.883 294.817 277.497 295 275.09V275.09ZM298.74 260.9C297.269 261.661 295.724 262.271 294.13 262.72C293.539 260.069 292.442 257.556 290.9 255.32C293.955 256.455 296.653 258.381 298.72 260.9H298.74ZM277.55 255.32C275.788 257.53 274.434 260.036 273.55 262.72C272.011 262.277 270.526 261.667 269.12 260.9C271.43 258.386 274.316 256.471 277.53 255.32H277.55ZM267.9 286.62C269.369 285.861 270.91 285.252 272.5 284.8C273.096 287.45 274.192 289.961 275.73 292.2C272.662 291.073 269.952 289.147 267.88 286.62H267.9ZM289.08 292.2C290.842 289.99 292.196 287.484 293.08 284.8C294.617 285.247 296.102 285.857 297.51 286.62C295.189 289.139 292.289 291.055 289.06 292.2H289.08Z" fill="#407BFF"/>
<path opacity="0.6" d="M271.46 220.12L260.2 325.56L275.26 325.79L286.62 220.34L271.46 220.12Z" fill="white"/>
<path opacity="0.6" d="M291.79 220.42L280.43 325.87L286.65 325.96L298.01 220.51L291.79 220.42Z" fill="white"/>
<path opacity="0.3" d="M266.37 218.56C266.635 218.56 266.89 218.455 267.077 218.267C267.265 218.08 267.37 217.825 267.37 217.56C267.37 217.305 267.273 217.059 267.099 216.873C266.924 216.687 266.685 216.575 266.43 216.56C266.165 216.56 265.91 216.665 265.723 216.853C265.535 217.04 265.43 217.295 265.43 217.56C265.429 217.815 265.527 218.061 265.701 218.247C265.876 218.433 266.115 218.545 266.37 218.56Z" fill="white"/>
</svg>
